<svg width="400" height="400" viewBox="0 0 400 400" xmlns="http://www.w3.org/2000/svg">
  <defs>
    <linearGradient id="bgGrad1" x1="0%" y1="0%" x2="100%" y2="100%">
      <stop offset="0%" style="stop-color:#8B5CF6;stop-opacity:0.8" />
      <stop offset="100%" style="stop-color:#7C3AED;stop-opacity:0.6" />
    </linearGradient>
    <linearGradient id="bgGrad2" x1="0%" y1="0%" x2="100%" y2="100%">
      <stop offset="0%" style="stop-color:#A855F7;stop-opacity:0.4" />
      <stop offset="100%" style="stop-color:#9333EA;stop-opacity:0.3" />
    </linearGradient>
    <linearGradient id="bgGrad3" x1="0%" y1="0%" x2="100%" y2="100%">
      <stop offset="0%" style="stop-color:#C084FC;stop-opacity:0.3" />
      <stop offset="100%" style="stop-color:#A855F7;stop-opacity:0.2" />
    </linearGradient>
  </defs>
  
  <!-- Large geometric shapes -->
  <rect x="20" y="20" width="120" height="120" rx="20" fill="url(#bgGrad1)" transform="rotate(15 80 80)"/>
  <circle cx="300" cy="80" r="60" fill="url(#bgGrad2)"/>
  <polygon points="320,280 380,320 320,360 260,320" fill="url(#bgGrad3)"/>
  
  <!-- Medium shapes -->
  <rect x="280" y="200" width="80" height="80" rx="15" fill="url(#bgGrad1)" transform="rotate(-20 320 240)"/>
  <circle cx="100" cy="300" r="40" fill="url(#bgGrad2)"/>
  
  <!-- Small accent shapes -->
  <rect x="50" y="150" width="40" height="40" rx="8" fill="url(#bgGrad3)" transform="rotate(45 70 170)"/>
  <circle cx="350" cy="180" r="25" fill="url(#bgGrad1)"/>
  <polygon points="180,50 200,70 180,90 160,70" fill="url(#bgGrad2)"/>
  
  <!-- Subtle dots -->
  <circle cx="120" cy="120" r="3" fill="#C084FC" opacity="0.6"/>
  <circle cx="280" cy="150" r="2" fill="#A855F7" opacity="0.5"/>
  <circle cx="200" cy="280" r="4" fill="#8B5CF6" opacity="0.4"/>
  <circle cx="320" cy="320" r="2" fill="#C084FC" opacity="0.6"/>
  <circle cx="80" cy="200" r="3" fill="#A855F7" opacity="0.5"/>
</svg>
